<svg width="54" height="48" viewBox="0 0 54 48" fill="none" xmlns="http://www.w3.org/2000/svg">
<path d="M47.3172 30H19.8349L20.4485 33H45.6127C47.0565 33 48.1267 34.3407 47.8067 35.7487L47.2895 38.0245C49.0418 38.8751 50.25 40.6714 50.25 42.75C50.25 45.6752 47.8576 48.0416 44.9228 47.9994C42.1269 47.9592 39.8274 45.6903 39.752 42.895C39.7107 41.3681 40.3224 39.9842 41.3273 38.9999H21.6728C22.6456 39.953 23.25 41.2806 23.25 42.75C23.25 45.7325 20.763 48.1342 17.7497 47.9942C15.0741 47.87 12.898 45.7081 12.7574 43.0332C12.6488 40.9675 13.7358 39.1468 15.3872 38.197L8.80153 6H2.25C1.00734 6 0 4.99266 0 3.75V2.25C0 1.00734 1.00734 0 2.25 0H11.8621C12.9309 0 13.8522 0.751969 14.0664 1.79906L14.9258 6H51.7491C53.1929 6 54.2631 7.34072 53.9431 8.74866L49.5113 28.2487C49.2785 29.2731 48.3678 30 47.3172 30ZM37.784 18H33.75V12.375C33.75 11.7537 33.2463 11.25 32.625 11.25H30.375C29.7537 11.25 29.25 11.7537 29.25 12.375V18H25.216C24.2138 18 23.7118 19.2118 24.4206 19.9205L30.7045 26.2044C31.1439 26.6438 31.8562 26.6438 32.2956 26.2044L38.5795 19.9205C39.2882 19.2118 38.7863 18 37.784 18Z" fill="#FE5D70"/>
</svg>
