<svg width="54" height="48" viewBox="0 0 54 48" fill="none" xmlns="http://www.w3.org/2000/svg">
<path d="M47.3172 30H19.8349L20.4485 33H45.6127C47.0565 33 48.1267 34.3407 47.8067 35.7487L47.2895 38.0245C49.0418 38.8751 50.25 40.6714 50.25 42.75C50.25 45.6752 47.8576 48.0416 44.9228 47.9994C42.1269 47.9592 39.8274 45.6903 39.752 42.895C39.7107 41.3681 40.3224 39.9842 41.3273 38.9999H21.6728C22.6456 39.953 23.25 41.2806 23.25 42.75C23.25 45.7325 20.763 48.1342 17.7497 47.9942C15.0741 47.87 12.898 45.7081 12.7574 43.0332C12.6488 40.9675 13.7358 39.1468 15.3872 38.197L8.80153 6H2.25C1.00734 6 0 4.99266 0 3.75V2.25C0 1.00734 1.00734 0 2.25 0H11.8621C12.9309 0 13.8522 0.751969 14.0664 1.79906L14.9258 6H51.7491C53.1929 6 54.2631 7.34072 53.9431 8.74866L49.5113 28.2487C49.2785 29.2731 48.3678 30 47.3172 30ZM38.25 15.75H33.75V12C33.75 11.1715 33.0785 10.5 32.25 10.5H30.75C29.9215 10.5 29.25 11.1715 29.25 12V15.75H24.75C23.9215 15.75 23.25 16.4215 23.25 17.25V18.75C23.25 19.5785 23.9215 20.25 24.75 20.25H29.25V24C29.25 24.8285 29.9215 25.5 30.75 25.5H32.25C33.0785 25.5 33.75 24.8285 33.75 24V20.25H38.25C39.0785 20.25 39.75 19.5785 39.75 18.75V17.25C39.75 16.4215 39.0785 15.75 38.25 15.75Z" fill="#0AC282"/>
</svg>
