<svg width="54" height="33" viewBox="0 0 54 33" fill="none" xmlns="http://www.w3.org/2000/svg">
<path d="M27 6.75C22.5264 6.75 18.9 10.9806 18.9 16.2C18.9 21.4186 22.5264 25.65 27 25.65C31.4719 25.65 35.1 21.4203 35.1 16.2C35.1 10.9806 31.4736 6.75 27 6.75ZM30.375 20.925C30.375 21.2979 30.0729 21.6 29.7 21.6H24.3C23.9271 21.6 23.625 21.2979 23.625 20.925V19.575C23.625 19.2021 23.9271 18.9 24.3 18.9H25.65V14.2222L25.6103 14.2484C25.5366 14.2976 25.4539 14.3318 25.367 14.349C25.28 14.3662 25.1906 14.3661 25.1037 14.3487C25.0167 14.3313 24.9341 14.297 24.8605 14.2476C24.7869 14.1983 24.7237 14.1349 24.6746 14.0611L23.9254 12.9381C23.8762 12.8643 23.842 12.7816 23.8248 12.6947C23.8076 12.6078 23.8077 12.5183 23.8251 12.4314C23.8425 12.3445 23.8768 12.2618 23.9262 12.1882C23.9755 12.1146 24.0389 12.0514 24.1127 12.0023L25.4062 11.14C25.7387 10.9183 26.1295 10.8 26.5292 10.8H27.675C28.0479 10.8 28.35 11.1021 28.35 11.475V18.9H29.7C30.0729 18.9 30.375 19.2021 30.375 19.575V20.925ZM51.3 0H2.7C1.20909 0 0 1.20909 0 2.7V29.7C0 31.1909 1.20909 32.4 2.7 32.4H51.3C52.7909 32.4 54 31.1909 54 29.7V2.7C54 1.20909 52.7909 0 51.3 0ZM49.95 22.95C46.9673 22.95 44.55 25.3673 44.55 28.35H9.45C9.45 25.3673 7.03266 22.95 4.05 22.95V9.45C7.03266 9.45 9.45 7.03266 9.45 4.05H44.55C44.55 7.03266 46.9673 9.45 49.95 9.45V22.95Z" fill="#01A9AC"/>
</svg>
